<svg width="13" height="13" viewBox="0 0 13 13" fill="none" xmlns="http://www.w3.org/2000/svg">
<path d="M4.87255 7.57957L2.16553 4.87255L4.87255 2.16553" stroke="black" stroke-width="1.08281" stroke-linecap="round" stroke-linejoin="round"/>
<path d="M2.16553 4.87256H7.85028C8.24132 4.87256 8.62853 4.94958 8.9898 5.09922C9.35108 5.24887 9.67934 5.46821 9.95584 5.74471C10.2324 6.02122 10.4517 6.34948 10.6013 6.71076C10.751 7.07203 10.828 7.45924 10.828 7.85028C10.828 8.24132 10.751 8.62854 10.6013 8.98981C10.4517 9.35108 10.2324 9.67935 9.95584 9.95585C9.67934 10.2324 9.35108 10.4517 8.9898 10.6013C8.62853 10.751 8.24132 10.828 7.85028 10.828H5.95536" stroke="black" stroke-width="1.08281" stroke-linecap="round" stroke-linejoin="round"/>
</svg>
